<svg xmlns="http://www.w3.org/2000/svg" xmlns:xlink="http://www.w3.org/1999/xlink" width="1000" zoomAndPan="magnify" viewBox="0 0 750 607.499987" height="810" preserveAspectRatio="xMidYMid meet" version="1.0"><defs><g/><clipPath id="55e584f5c4"><path d="M 0.308594 9.992188 L 749.691406 9.992188 L 749.691406 581.914062 L 0.308594 581.914062 Z M 0.308594 9.992188 " clip-rule="nonzero"/></clipPath><clipPath id="0253d6d2dd"><path d="M 27.285156 9.992188 L 722.714844 9.992188 C 729.867188 9.992188 736.730469 12.835938 741.789062 17.894531 C 746.847656 22.953125 749.691406 29.816406 749.691406 36.972656 L 749.691406 554.9375 C 749.691406 562.09375 746.847656 568.953125 741.789062 574.015625 C 736.730469 579.074219 729.867188 581.914062 722.714844 581.914062 L 27.285156 581.914062 C 20.132812 581.914062 13.269531 579.074219 8.210938 574.015625 C 3.152344 568.953125 0.308594 562.09375 0.308594 554.9375 L 0.308594 36.972656 C 0.308594 29.816406 3.152344 22.953125 8.210938 17.894531 C 13.269531 12.835938 20.132812 9.992188 27.285156 9.992188 Z M 27.285156 9.992188 " clip-rule="nonzero"/></clipPath><clipPath id="86aa031a48"><path d="M 0.308594 0.992188 L 749 0.992188 L 749 572.914062 L 0.308594 572.914062 Z M 0.308594 0.992188 " clip-rule="nonzero"/></clipPath><clipPath id="90bfc42ffd"><path d="M 27.285156 0.992188 L 722.714844 0.992188 C 729.867188 0.992188 736.730469 3.835938 741.789062 8.894531 C 746.847656 13.953125 749.691406 20.816406 749.691406 27.972656 L 749.691406 545.9375 C 749.691406 553.09375 746.847656 559.953125 741.789062 565.015625 C 736.730469 570.074219 729.867188 572.914062 722.714844 572.914062 L 27.285156 572.914062 C 20.132812 572.914062 13.269531 570.074219 8.210938 565.015625 C 3.152344 559.953125 0.308594 553.09375 0.308594 545.9375 L 0.308594 27.972656 C 0.308594 20.816406 3.152344 13.953125 8.210938 8.894531 C 13.269531 3.835938 20.132812 0.992188 27.285156 0.992188 Z M 27.285156 0.992188 " clip-rule="nonzero"/></clipPath><clipPath id="42af3c17aa"><rect x="0" width="750" y="0" height="573"/></clipPath><clipPath id="29c465466f"><path d="M 48.136719 58.0625 L 702 58.0625 L 702 533.847656 L 48.136719 533.847656 Z M 48.136719 58.0625 " clip-rule="nonzero"/></clipPath><clipPath id="1b0cd2c722"><path d="M 61.625 58.0625 L 688.375 58.0625 C 691.953125 58.0625 695.382812 59.484375 697.914062 62.011719 C 700.445312 64.542969 701.863281 67.972656 701.863281 71.550781 L 701.863281 520.359375 C 701.863281 523.933594 700.445312 527.367188 697.914062 529.894531 C 695.382812 532.425781 691.953125 533.847656 688.375 533.847656 L 61.625 533.847656 C 58.046875 533.847656 54.617188 532.425781 52.085938 529.894531 C 49.554688 527.367188 48.136719 523.933594 48.136719 520.359375 L 48.136719 71.550781 C 48.136719 67.972656 49.554688 64.542969 52.085938 62.011719 C 54.617188 59.484375 58.046875 58.0625 61.625 58.0625 Z M 61.625 58.0625 " clip-rule="nonzero"/></clipPath><clipPath id="298e2dd7ce"><path d="M 0.136719 0.0625 L 653.972656 0.0625 L 653.972656 475.847656 L 0.136719 475.847656 Z M 0.136719 0.0625 " clip-rule="nonzero"/></clipPath><clipPath id="a62b0bc2f9"><path d="M 13.625 0.0625 L 640.375 0.0625 C 643.953125 0.0625 647.382812 1.484375 649.914062 4.011719 C 652.445312 6.542969 653.863281 9.972656 653.863281 13.550781 L 653.863281 462.359375 C 653.863281 465.933594 652.445312 469.367188 649.914062 471.894531 C 647.382812 474.425781 643.953125 475.847656 640.375 475.847656 L 13.625 475.847656 C 10.046875 475.847656 6.617188 474.425781 4.085938 471.894531 C 1.554688 469.367188 0.136719 465.933594 0.136719 462.359375 L 0.136719 13.550781 C 0.136719 9.972656 1.554688 6.542969 4.085938 4.011719 C 6.617188 1.484375 10.046875 0.0625 13.625 0.0625 Z M 13.625 0.0625 " clip-rule="nonzero"/></clipPath><clipPath id="dd5d5f4760"><rect x="0" width="654" y="0" height="476"/></clipPath><clipPath id="ed59b3264f"><path d="M 48.136719 58.0625 L 701.597656 58.0625 L 701.597656 533.921875 L 48.136719 533.921875 Z M 48.136719 58.0625 " clip-rule="nonzero"/></clipPath><clipPath id="5ef54d7828"><path d="M 61.625 58.0625 L 688.367188 58.0625 C 691.941406 58.0625 695.375 59.484375 697.902344 62.011719 C 700.433594 64.542969 701.855469 67.972656 701.855469 71.550781 L 701.855469 520.351562 C 701.855469 523.925781 700.433594 527.359375 697.902344 529.886719 C 695.375 532.417969 691.941406 533.839844 688.367188 533.839844 L 61.625 533.839844 C 58.046875 533.839844 54.617188 532.417969 52.085938 529.886719 C 49.558594 527.359375 48.136719 523.925781 48.136719 520.351562 L 48.136719 71.550781 C 48.136719 67.972656 49.558594 64.542969 52.085938 62.011719 C 54.617188 59.484375 58.046875 58.0625 61.625 58.0625 Z M 61.625 58.0625 " clip-rule="nonzero"/></clipPath><clipPath id="959956dad6"><rect x="0" width="333" y="0" height="509"/></clipPath><clipPath id="d18e18d18d"><rect x="0" width="281" y="0" height="219"/></clipPath></defs><g clip-path="url(#55e584f5c4)"><g clip-path="url(#0253d6d2dd)"><g transform="matrix(1, 0, 0, 1, 0, 9)"><g clip-path="url(#42af3c17aa)"><g clip-path="url(#86aa031a48)"><g clip-path="url(#90bfc42ffd)"><path fill="#0c0863" d="M 0.308594 0.992188 L 748.722656 0.992188 L 748.722656 572.914062 L 0.308594 572.914062 Z M 0.308594 0.992188 " fill-opacity="1" fill-rule="nonzero"/></g></g></g></g></g></g><g clip-path="url(#29c465466f)"><g clip-path="url(#1b0cd2c722)"><g transform="matrix(1, 0, 0, 1, 48, 58)"><g clip-path="url(#dd5d5f4760)"><g clip-path="url(#298e2dd7ce)"><g clip-path="url(#a62b0bc2f9)"><path fill="#5f8c31" d="M 0.136719 0.0625 L 654.339844 0.0625 L 654.339844 475.847656 L 0.136719 475.847656 Z M 0.136719 0.0625 " fill-opacity="1" fill-rule="nonzero"/></g></g></g></g></g></g><g clip-path="url(#ed59b3264f)"><g clip-path="url(#5ef54d7828)"><path stroke-linecap="butt" transform="matrix(0.749383, 0, 0, 0.749383, 48.136148, 58.062499)" fill="none" stroke-linejoin="miter" d="M 17.99994 0.00000177416 L 854.344025 0.00000177416 C 859.113573 0.00000177416 863.695466 1.897396 867.068032 5.269961 C 870.44581 8.647739 872.343204 13.22442 872.343204 17.99918 L 872.343204 616.89277 C 872.343204 621.662318 870.44581 626.244211 867.068032 629.616777 C 863.695466 632.994555 859.113573 634.891949 854.344025 634.891949 L 17.99994 634.891949 C 13.22518 634.891949 8.648499 632.994555 5.270721 629.616777 C 1.898155 626.244211 0.00076169 621.662318 0.00076169 616.89277 L 0.00076169 17.99918 C 0.00076169 13.22442 1.898155 8.647739 5.270721 5.269961 C 8.648499 1.897396 13.22518 0.00000177416 17.99994 0.00000177416 Z M 17.99994 0.00000177416 " stroke="#ffffff" stroke-width="28" stroke-opacity="1" stroke-miterlimit="4"/></g></g><g transform="matrix(1, 0, 0, 1, 69, 98)"><g clip-path="url(#959956dad6)"><g fill="#c1ff72" fill-opacity="1"><g transform="translate(0.816093, 366.479316)"><g><path d="M 330.296875 0 L 224.40625 0 L 100.59375 -170.640625 L 100.59375 0 L 24.03125 0 L 24.03125 -336 L 100.59375 -336 L 100.59375 -170.640625 L 216.265625 -336 L 309.109375 -336 L 187.75 -170.640625 Z M 330.296875 0 "/></g></g></g></g></g><g transform="matrix(1, 0, 0, 1, 390, 115)"><g clip-path="url(#d18e18d18d)"><g fill="#c1ff72" fill-opacity="1"><g transform="translate(2.274891, 156.487976)"><g><path d="M 67.84375 0 L 7.65625 -143.53125 L 44.53125 -143.53125 L 80.71875 -49.234375 L 116.90625 -143.53125 L 153.78125 -143.53125 L 93.59375 0 Z M 67.84375 0 "/></g></g></g><g fill="#c1ff72" fill-opacity="1"><g transform="translate(152.565063, 156.487976)"><g><path d="M 90.8125 -71.671875 C 90.8125 -80.023438 89.421875 -87.421875 86.640625 -93.859375 C 83.859375 -100.296875 79.101562 -105.3125 72.375 -108.90625 C 65.644531 -112.5 56.363281 -114.296875 44.53125 -114.296875 L 44.53125 -29.234375 C 56.363281 -29.234375 65.644531 -31.03125 72.375 -34.625 C 79.101562 -38.21875 83.859375 -43.203125 86.640625 -49.578125 C 89.421875 -55.960938 90.8125 -63.328125 90.8125 -71.671875 Z M 11.828125 -143.53125 L 53.578125 -143.53125 C 63.441406 -143.53125 72.722656 -141.757812 81.421875 -138.21875 C 90.117188 -134.675781 97.800781 -129.71875 104.46875 -123.34375 C 111.132812 -116.96875 116.351562 -109.398438 120.125 -100.640625 C 123.894531 -91.878906 125.78125 -82.28125 125.78125 -71.84375 C 125.78125 -61.40625 123.894531 -51.804688 120.125 -43.046875 C 116.351562 -34.296875 111.132812 -26.703125 104.46875 -20.265625 C 97.800781 -13.828125 90.117188 -8.835938 81.421875 -5.296875 C 72.722656 -1.765625 63.441406 0 53.578125 0 L 11.828125 0 Z M 11.828125 -143.53125 "/></g></g></g></g></g></svg>