<svg xmlns="http://www.w3.org/2000/svg" xmlns:xlink="http://www.w3.org/1999/xlink" width="1000" zoomAndPan="magnify" viewBox="0 0 750 607.499987" height="810" preserveAspectRatio="xMidYMid meet" version="1.0"><defs><clipPath id="4541cac603"><path d="M 2.34375 9.480469 L 747.503906 9.480469 L 747.503906 598.71875 L 2.34375 598.71875 Z M 2.34375 9.480469 " clip-rule="nonzero"/></clipPath><clipPath id="33fce9fdd7"><path d="M 25.277344 9.480469 L 724.460938 9.480469 C 730.546875 9.480469 736.378906 11.894531 740.679688 16.191406 C 744.980469 20.492188 747.398438 26.324219 747.398438 32.40625 L 747.398438 575.792969 C 747.398438 581.875 744.980469 587.707031 740.679688 592.007812 C 736.378906 596.304688 730.546875 598.71875 724.460938 598.71875 L 25.277344 598.71875 C 19.195312 598.71875 13.363281 596.304688 9.058594 592.007812 C 4.761719 587.707031 2.34375 581.875 2.34375 575.792969 L 2.34375 32.40625 C 2.34375 26.324219 4.761719 20.492188 9.058594 16.191406 C 13.363281 11.894531 19.195312 9.480469 25.277344 9.480469 Z M 25.277344 9.480469 " clip-rule="nonzero"/></clipPath><clipPath id="7e821d5708"><path d="M 25.277344 9.480469 L 724.460938 9.480469 C 730.546875 9.480469 736.378906 11.894531 740.679688 16.191406 C 744.980469 20.492188 747.398438 26.324219 747.398438 32.40625 L 747.398438 575.792969 C 747.398438 581.875 744.980469 587.707031 740.679688 592.007812 C 736.378906 596.304688 730.546875 598.71875 724.460938 598.71875 L 25.277344 598.71875 C 19.195312 598.71875 13.363281 596.304688 9.058594 592.007812 C 4.761719 587.707031 2.34375 581.875 2.34375 575.792969 L 2.34375 32.40625 C 2.34375 26.324219 4.761719 20.492188 9.058594 16.191406 C 13.363281 11.894531 19.195312 9.480469 25.277344 9.480469 Z M 25.277344 9.480469 " clip-rule="nonzero"/></clipPath><clipPath id="8a63800790"><path d="M 44.285156 51.074219 L 705.488281 51.074219 L 705.488281 214.1875 L 44.285156 214.1875 Z M 44.285156 51.074219 " clip-rule="nonzero"/></clipPath><clipPath id="5e8d984a54"><path d="M 55.753906 51.074219 L 693.988281 51.074219 C 700.320312 51.074219 705.457031 56.207031 705.457031 62.539062 L 705.457031 202.726562 C 705.457031 209.054688 700.320312 214.1875 693.988281 214.1875 L 55.753906 214.1875 C 49.417969 214.1875 44.285156 209.054688 44.285156 202.726562 L 44.285156 62.539062 C 44.285156 56.207031 49.417969 51.074219 55.753906 51.074219 Z M 55.753906 51.074219 " clip-rule="nonzero"/></clipPath><clipPath id="bda8a03455"><path d="M 55.753906 51.074219 L 693.988281 51.074219 C 700.320312 51.074219 705.457031 56.207031 705.457031 62.539062 L 705.457031 202.726562 C 705.457031 209.054688 700.320312 214.1875 693.988281 214.1875 L 55.753906 214.1875 C 49.417969 214.1875 44.285156 209.054688 44.285156 202.726562 L 44.285156 62.539062 C 44.285156 56.207031 49.417969 51.074219 55.753906 51.074219 Z M 55.753906 51.074219 " clip-rule="nonzero"/></clipPath><clipPath id="5df9de0d6a"><path d="M 71.453125 256.261719 L 181.855469 256.261719 L 181.855469 347.21875 L 71.453125 347.21875 Z M 71.453125 256.261719 " clip-rule="nonzero"/></clipPath><clipPath id="c79a742d05"><path d="M 82.917969 256.261719 L 170.320312 256.261719 C 176.65625 256.261719 181.789062 261.390625 181.789062 267.722656 L 181.789062 335.757812 C 181.789062 342.085938 176.65625 347.21875 170.320312 347.21875 L 82.917969 347.21875 C 76.585938 347.21875 71.453125 342.085938 71.453125 335.757812 L 71.453125 267.722656 C 71.453125 261.390625 76.585938 256.261719 82.917969 256.261719 Z M 82.917969 256.261719 " clip-rule="nonzero"/></clipPath><clipPath id="cbce5f9d57"><path d="M 82.917969 256.261719 L 170.320312 256.261719 C 176.65625 256.261719 181.789062 261.390625 181.789062 267.722656 L 181.789062 335.757812 C 181.789062 342.085938 176.65625 347.21875 170.320312 347.21875 L 82.917969 347.21875 C 76.585938 347.21875 71.453125 342.085938 71.453125 335.757812 L 71.453125 267.722656 C 71.453125 261.390625 76.585938 256.261719 82.917969 256.261719 Z M 82.917969 256.261719 " clip-rule="nonzero"/></clipPath><clipPath id="b47814a237"><path d="M 71.453125 361.113281 L 181.855469 361.113281 L 181.855469 452.066406 L 71.453125 452.066406 Z M 71.453125 361.113281 " clip-rule="nonzero"/></clipPath><clipPath id="3be06e9bea"><path d="M 82.917969 361.113281 L 170.320312 361.113281 C 176.65625 361.113281 181.789062 366.242188 181.789062 372.574219 L 181.789062 440.605469 C 181.789062 446.9375 176.65625 452.066406 170.320312 452.066406 L 82.917969 452.066406 C 76.585938 452.066406 71.453125 446.9375 71.453125 440.605469 L 71.453125 372.574219 C 71.453125 366.242188 76.585938 361.113281 82.917969 361.113281 Z M 82.917969 361.113281 " clip-rule="nonzero"/></clipPath><clipPath id="72273449b4"><path d="M 82.917969 361.113281 L 170.320312 361.113281 C 176.65625 361.113281 181.789062 366.242188 181.789062 372.574219 L 181.789062 440.605469 C 181.789062 446.9375 176.65625 452.066406 170.320312 452.066406 L 82.917969 452.066406 C 76.585938 452.066406 71.453125 446.9375 71.453125 440.605469 L 71.453125 372.574219 C 71.453125 366.242188 76.585938 361.113281 82.917969 361.113281 Z M 82.917969 361.113281 " clip-rule="nonzero"/></clipPath><clipPath id="e8ccbcd616"><path d="M 71.453125 465.992188 L 181.855469 465.992188 L 181.855469 556.949219 L 71.453125 556.949219 Z M 71.453125 465.992188 " clip-rule="nonzero"/></clipPath><clipPath id="9b1f72bfe8"><path d="M 82.917969 465.992188 L 170.320312 465.992188 C 176.65625 465.992188 181.789062 471.125 181.789062 477.457031 L 181.789062 545.488281 C 181.789062 551.816406 176.65625 556.949219 170.320312 556.949219 L 82.917969 556.949219 C 76.585938 556.949219 71.453125 551.816406 71.453125 545.488281 L 71.453125 477.457031 C 71.453125 471.125 76.585938 465.992188 82.917969 465.992188 Z M 82.917969 465.992188 " clip-rule="nonzero"/></clipPath><clipPath id="c39805a8ca"><path d="M 82.917969 465.992188 L 170.320312 465.992188 C 176.65625 465.992188 181.789062 471.125 181.789062 477.457031 L 181.789062 545.488281 C 181.789062 551.816406 176.65625 556.949219 170.320312 556.949219 L 82.917969 556.949219 C 76.585938 556.949219 71.453125 551.816406 71.453125 545.488281 L 71.453125 477.457031 C 71.453125 471.125 76.585938 465.992188 82.917969 465.992188 Z M 82.917969 465.992188 " clip-rule="nonzero"/></clipPath><clipPath id="c6cb2cc05d"><path d="M 195.4375 256.261719 L 305.886719 256.261719 L 305.886719 347.21875 L 195.4375 347.21875 Z M 195.4375 256.261719 " clip-rule="nonzero"/></clipPath><clipPath id="1e190a4603"><path d="M 206.90625 256.261719 L 294.304688 256.261719 C 300.640625 256.261719 305.773438 261.390625 305.773438 267.722656 L 305.773438 335.757812 C 305.773438 342.085938 300.640625 347.21875 294.304688 347.21875 L 206.90625 347.21875 C 200.570312 347.21875 195.4375 342.085938 195.4375 335.757812 L 195.4375 267.722656 C 195.4375 261.390625 200.570312 256.261719 206.90625 256.261719 Z M 206.90625 256.261719 " clip-rule="nonzero"/></clipPath><clipPath id="bca11692ec"><path d="M 206.90625 256.261719 L 294.304688 256.261719 C 300.640625 256.261719 305.773438 261.390625 305.773438 267.722656 L 305.773438 335.757812 C 305.773438 342.085938 300.640625 347.21875 294.304688 347.21875 L 206.90625 347.21875 C 200.570312 347.21875 195.4375 342.085938 195.4375 335.757812 L 195.4375 267.722656 C 195.4375 261.390625 200.570312 256.261719 206.90625 256.261719 Z M 206.90625 256.261719 " clip-rule="nonzero"/></clipPath><clipPath id="8b22ad2afc"><path d="M 195.4375 361.113281 L 305.886719 361.113281 L 305.886719 452.066406 L 195.4375 452.066406 Z M 195.4375 361.113281 " clip-rule="nonzero"/></clipPath><clipPath id="c88a0bfcc7"><path d="M 206.90625 361.113281 L 294.304688 361.113281 C 300.640625 361.113281 305.773438 366.242188 305.773438 372.574219 L 305.773438 440.605469 C 305.773438 446.9375 300.640625 452.066406 294.304688 452.066406 L 206.90625 452.066406 C 200.570312 452.066406 195.4375 446.9375 195.4375 440.605469 L 195.4375 372.574219 C 195.4375 366.242188 200.570312 361.113281 206.90625 361.113281 Z M 206.90625 361.113281 " clip-rule="nonzero"/></clipPath><clipPath id="974efa829c"><path d="M 206.90625 361.113281 L 294.304688 361.113281 C 300.640625 361.113281 305.773438 366.242188 305.773438 372.574219 L 305.773438 440.605469 C 305.773438 446.9375 300.640625 452.066406 294.304688 452.066406 L 206.90625 452.066406 C 200.570312 452.066406 195.4375 446.9375 195.4375 440.605469 L 195.4375 372.574219 C 195.4375 366.242188 200.570312 361.113281 206.90625 361.113281 Z M 206.90625 361.113281 " clip-rule="nonzero"/></clipPath><clipPath id="7c11af2247"><path d="M 195.4375 465.992188 L 305.886719 465.992188 L 305.886719 556.949219 L 195.4375 556.949219 Z M 195.4375 465.992188 " clip-rule="nonzero"/></clipPath><clipPath id="06b7889808"><path d="M 206.90625 465.992188 L 294.304688 465.992188 C 300.640625 465.992188 305.773438 471.125 305.773438 477.457031 L 305.773438 545.488281 C 305.773438 551.816406 300.640625 556.949219 294.304688 556.949219 L 206.90625 556.949219 C 200.570312 556.949219 195.4375 551.816406 195.4375 545.488281 L 195.4375 477.457031 C 195.4375 471.125 200.570312 465.992188 206.90625 465.992188 Z M 206.90625 465.992188 " clip-rule="nonzero"/></clipPath><clipPath id="abb3bc236f"><path d="M 206.90625 465.992188 L 294.304688 465.992188 C 300.640625 465.992188 305.773438 471.125 305.773438 477.457031 L 305.773438 545.488281 C 305.773438 551.816406 300.640625 556.949219 294.304688 556.949219 L 206.90625 556.949219 C 200.570312 556.949219 195.4375 551.816406 195.4375 545.488281 L 195.4375 477.457031 C 195.4375 471.125 200.570312 465.992188 206.90625 465.992188 Z M 206.90625 465.992188 " clip-rule="nonzero"/></clipPath><clipPath id="6963500d72"><path d="M 319.703125 256.261719 L 429.914062 256.261719 L 429.914062 347.21875 L 319.703125 347.21875 Z M 319.703125 256.261719 " clip-rule="nonzero"/></clipPath><clipPath id="7facd6a774"><path d="M 331.171875 256.261719 L 418.570312 256.261719 C 424.90625 256.261719 430.039062 261.390625 430.039062 267.722656 L 430.039062 335.757812 C 430.039062 342.085938 424.90625 347.21875 418.570312 347.21875 L 331.171875 347.21875 C 324.835938 347.21875 319.703125 342.085938 319.703125 335.757812 L 319.703125 267.722656 C 319.703125 261.390625 324.835938 256.261719 331.171875 256.261719 Z M 331.171875 256.261719 " clip-rule="nonzero"/></clipPath><clipPath id="23126f5191"><path d="M 331.171875 256.261719 L 418.570312 256.261719 C 424.90625 256.261719 430.039062 261.390625 430.039062 267.722656 L 430.039062 335.757812 C 430.039062 342.085938 424.90625 347.21875 418.570312 347.21875 L 331.171875 347.21875 C 324.835938 347.21875 319.703125 342.085938 319.703125 335.757812 L 319.703125 267.722656 C 319.703125 261.390625 324.835938 256.261719 331.171875 256.261719 Z M 331.171875 256.261719 " clip-rule="nonzero"/></clipPath><clipPath id="0d0f1741af"><path d="M 319.703125 361.113281 L 429.914062 361.113281 L 429.914062 452.066406 L 319.703125 452.066406 Z M 319.703125 361.113281 " clip-rule="nonzero"/></clipPath><clipPath id="0856308f16"><path d="M 331.171875 361.113281 L 418.570312 361.113281 C 424.90625 361.113281 430.039062 366.242188 430.039062 372.574219 L 430.039062 440.605469 C 430.039062 446.9375 424.90625 452.066406 418.570312 452.066406 L 331.171875 452.066406 C 324.835938 452.066406 319.703125 446.9375 319.703125 440.605469 L 319.703125 372.574219 C 319.703125 366.242188 324.835938 361.113281 331.171875 361.113281 Z M 331.171875 361.113281 " clip-rule="nonzero"/></clipPath><clipPath id="9116ddc262"><path d="M 331.171875 361.113281 L 418.570312 361.113281 C 424.90625 361.113281 430.039062 366.242188 430.039062 372.574219 L 430.039062 440.605469 C 430.039062 446.9375 424.90625 452.066406 418.570312 452.066406 L 331.171875 452.066406 C 324.835938 452.066406 319.703125 446.9375 319.703125 440.605469 L 319.703125 372.574219 C 319.703125 366.242188 324.835938 361.113281 331.171875 361.113281 Z M 331.171875 361.113281 " clip-rule="nonzero"/></clipPath><clipPath id="1dd0ddca3f"><path d="M 319.703125 465.992188 L 429.914062 465.992188 L 429.914062 556.949219 L 319.703125 556.949219 Z M 319.703125 465.992188 " clip-rule="nonzero"/></clipPath><clipPath id="66550fdc45"><path d="M 331.171875 465.992188 L 418.570312 465.992188 C 424.90625 465.992188 430.039062 471.125 430.039062 477.457031 L 430.039062 545.488281 C 430.039062 551.816406 424.90625 556.949219 418.570312 556.949219 L 331.171875 556.949219 C 324.835938 556.949219 319.703125 551.816406 319.703125 545.488281 L 319.703125 477.457031 C 319.703125 471.125 324.835938 465.992188 331.171875 465.992188 Z M 331.171875 465.992188 " clip-rule="nonzero"/></clipPath><clipPath id="9694807fbb"><path d="M 331.171875 465.992188 L 418.570312 465.992188 C 424.90625 465.992188 430.039062 471.125 430.039062 477.457031 L 430.039062 545.488281 C 430.039062 551.816406 424.90625 556.949219 418.570312 556.949219 L 331.171875 556.949219 C 324.835938 556.949219 319.703125 551.816406 319.703125 545.488281 L 319.703125 477.457031 C 319.703125 471.125 324.835938 465.992188 331.171875 465.992188 Z M 331.171875 465.992188 " clip-rule="nonzero"/></clipPath><clipPath id="f20edcc7fb"><path d="M 443.757812 256.261719 L 554 256.261719 L 554 347.21875 L 443.757812 347.21875 Z M 443.757812 256.261719 " clip-rule="nonzero"/></clipPath><clipPath id="c6ee03c094"><path d="M 455.226562 256.261719 L 542.628906 256.261719 C 548.964844 256.261719 554.097656 261.390625 554.097656 267.722656 L 554.097656 335.757812 C 554.097656 342.085938 548.964844 347.21875 542.628906 347.21875 L 455.226562 347.21875 C 448.894531 347.21875 443.757812 342.085938 443.757812 335.757812 L 443.757812 267.722656 C 443.757812 261.390625 448.894531 256.261719 455.226562 256.261719 Z M 455.226562 256.261719 " clip-rule="nonzero"/></clipPath><clipPath id="eb4d3ca268"><path d="M 455.226562 256.261719 L 542.628906 256.261719 C 548.964844 256.261719 554.097656 261.390625 554.097656 267.722656 L 554.097656 335.757812 C 554.097656 342.085938 548.964844 347.21875 542.628906 347.21875 L 455.226562 347.21875 C 448.894531 347.21875 443.757812 342.085938 443.757812 335.757812 L 443.757812 267.722656 C 443.757812 261.390625 448.894531 256.261719 455.226562 256.261719 Z M 455.226562 256.261719 " clip-rule="nonzero"/></clipPath><clipPath id="aaa1dadb3f"><path d="M 443.757812 361.113281 L 554 361.113281 L 554 452.066406 L 443.757812 452.066406 Z M 443.757812 361.113281 " clip-rule="nonzero"/></clipPath><clipPath id="5d4584c078"><path d="M 455.226562 361.113281 L 542.628906 361.113281 C 548.964844 361.113281 554.097656 366.242188 554.097656 372.574219 L 554.097656 440.605469 C 554.097656 446.9375 548.964844 452.066406 542.628906 452.066406 L 455.226562 452.066406 C 448.894531 452.066406 443.757812 446.9375 443.757812 440.605469 L 443.757812 372.574219 C 443.757812 366.242188 448.894531 361.113281 455.226562 361.113281 Z M 455.226562 361.113281 " clip-rule="nonzero"/></clipPath><clipPath id="63e23994fa"><path d="M 455.226562 361.113281 L 542.628906 361.113281 C 548.964844 361.113281 554.097656 366.242188 554.097656 372.574219 L 554.097656 440.605469 C 554.097656 446.9375 548.964844 452.066406 542.628906 452.066406 L 455.226562 452.066406 C 448.894531 452.066406 443.757812 446.9375 443.757812 440.605469 L 443.757812 372.574219 C 443.757812 366.242188 448.894531 361.113281 455.226562 361.113281 Z M 455.226562 361.113281 " clip-rule="nonzero"/></clipPath><clipPath id="5224d2fb1c"><path d="M 443.757812 465.992188 L 554 465.992188 L 554 556.949219 L 443.757812 556.949219 Z M 443.757812 465.992188 " clip-rule="nonzero"/></clipPath><clipPath id="3c6d4f9c25"><path d="M 455.226562 465.992188 L 542.628906 465.992188 C 548.964844 465.992188 554.097656 471.125 554.097656 477.457031 L 554.097656 545.488281 C 554.097656 551.816406 548.964844 556.949219 542.628906 556.949219 L 455.226562 556.949219 C 448.894531 556.949219 443.757812 551.816406 443.757812 545.488281 L 443.757812 477.457031 C 443.757812 471.125 448.894531 465.992188 455.226562 465.992188 Z M 455.226562 465.992188 " clip-rule="nonzero"/></clipPath><clipPath id="f5785fc219"><path d="M 455.226562 465.992188 L 542.628906 465.992188 C 548.964844 465.992188 554.097656 471.125 554.097656 477.457031 L 554.097656 545.488281 C 554.097656 551.816406 548.964844 556.949219 542.628906 556.949219 L 455.226562 556.949219 C 448.894531 556.949219 443.757812 551.816406 443.757812 545.488281 L 443.757812 477.457031 C 443.757812 471.125 448.894531 465.992188 455.226562 465.992188 Z M 455.226562 465.992188 " clip-rule="nonzero"/></clipPath><clipPath id="5f8020c712"><path d="M 567.953125 256.246094 L 678.335938 256.246094 L 678.335938 347.203125 L 567.953125 347.203125 Z M 567.953125 256.246094 " clip-rule="nonzero"/></clipPath><clipPath id="56bf99f7f5"><path d="M 579.417969 256.246094 L 666.824219 256.246094 C 673.152344 256.246094 678.289062 261.375 678.289062 267.707031 L 678.289062 335.742188 C 678.289062 342.070312 673.152344 347.203125 666.824219 347.203125 L 579.417969 347.203125 C 573.085938 347.203125 567.953125 342.070312 567.953125 335.742188 L 567.953125 267.707031 C 567.953125 261.375 573.085938 256.246094 579.417969 256.246094 Z M 579.417969 256.246094 " clip-rule="nonzero"/></clipPath><clipPath id="f52a51caa0"><path d="M 579.417969 256.246094 L 666.824219 256.246094 C 673.152344 256.246094 678.289062 261.375 678.289062 267.707031 L 678.289062 335.742188 C 678.289062 342.070312 673.152344 347.203125 666.824219 347.203125 L 579.417969 347.203125 C 573.085938 347.203125 567.953125 342.070312 567.953125 335.742188 L 567.953125 267.707031 C 567.953125 261.375 573.085938 256.246094 579.417969 256.246094 Z M 579.417969 256.246094 " clip-rule="nonzero"/></clipPath><clipPath id="1a8f82e908"><path d="M 567.953125 361.097656 L 678.289062 361.097656 L 678.289062 557 L 567.953125 557 Z M 567.953125 361.097656 " clip-rule="nonzero"/></clipPath><clipPath id="b414efec46"><path d="M 579.417969 361.097656 L 666.824219 361.097656 C 673.152344 361.097656 678.289062 366.226562 678.289062 372.558594 L 678.289062 545.472656 C 678.289062 551.804688 673.152344 556.933594 666.824219 556.933594 L 579.417969 556.933594 C 573.085938 556.933594 567.953125 551.804688 567.953125 545.472656 L 567.953125 372.558594 C 567.953125 366.226562 573.085938 361.097656 579.417969 361.097656 Z M 579.417969 361.097656 " clip-rule="nonzero"/></clipPath><clipPath id="a6fb19ba54"><path d="M 579.417969 361.097656 L 666.824219 361.097656 C 673.152344 361.097656 678.289062 366.226562 678.289062 372.558594 L 678.289062 545.472656 C 678.289062 551.804688 673.152344 556.933594 666.824219 556.933594 L 579.417969 556.933594 C 573.085938 556.933594 567.953125 551.804688 567.953125 545.472656 L 567.953125 372.558594 C 567.953125 366.226562 573.085938 361.097656 579.417969 361.097656 Z M 579.417969 361.097656 " clip-rule="nonzero"/></clipPath></defs><g clip-path="url(#4541cac603)"><g clip-path="url(#33fce9fdd7)"><g clip-path="url(#7e821d5708)"><path fill="#0c0863" d="M 2.34375 9.480469 L 748.382812 9.480469 L 748.382812 598.71875 L 2.34375 598.71875 Z M 2.34375 9.480469 " fill-opacity="1" fill-rule="nonzero"/></g></g></g><g clip-path="url(#8a63800790)"><g clip-path="url(#5e8d984a54)"><g clip-path="url(#bda8a03455)"><path fill="#5f8c31" d="M 44.285156 51.074219 L 705.265625 51.074219 L 705.265625 214.1875 L 44.285156 214.1875 Z M 44.285156 51.074219 " fill-opacity="1" fill-rule="nonzero"/></g></g></g><g clip-path="url(#5df9de0d6a)"><g clip-path="url(#c79a742d05)"><g clip-path="url(#cbce5f9d57)"><path fill="#ffffff" d="M 71.453125 256.261719 L 181.636719 256.261719 L 181.636719 347.21875 L 71.453125 347.21875 Z M 71.453125 256.261719 " fill-opacity="1" fill-rule="nonzero"/></g></g></g><g clip-path="url(#b47814a237)"><g clip-path="url(#3be06e9bea)"><g clip-path="url(#72273449b4)"><path fill="#ffffff" d="M 71.453125 361.113281 L 181.636719 361.113281 L 181.636719 452.066406 L 71.453125 452.066406 Z M 71.453125 361.113281 " fill-opacity="1" fill-rule="nonzero"/></g></g></g><g clip-path="url(#e8ccbcd616)"><g clip-path="url(#9b1f72bfe8)"><g clip-path="url(#c39805a8ca)"><path fill="#ffffff" d="M 71.453125 465.992188 L 181.636719 465.992188 L 181.636719 556.949219 L 71.453125 556.949219 Z M 71.453125 465.992188 " fill-opacity="1" fill-rule="nonzero"/></g></g></g><g clip-path="url(#c6cb2cc05d)"><g clip-path="url(#1e190a4603)"><g clip-path="url(#bca11692ec)"><path fill="#ffffff" d="M 195.4375 256.261719 L 305.625 256.261719 L 305.625 347.21875 L 195.4375 347.21875 Z M 195.4375 256.261719 " fill-opacity="1" fill-rule="nonzero"/></g></g></g><g clip-path="url(#8b22ad2afc)"><g clip-path="url(#c88a0bfcc7)"><g clip-path="url(#974efa829c)"><path fill="#ffffff" d="M 195.4375 361.113281 L 305.625 361.113281 L 305.625 452.066406 L 195.4375 452.066406 Z M 195.4375 361.113281 " fill-opacity="1" fill-rule="nonzero"/></g></g></g><g clip-path="url(#7c11af2247)"><g clip-path="url(#06b7889808)"><g clip-path="url(#abb3bc236f)"><path fill="#ffffff" d="M 195.4375 465.992188 L 305.625 465.992188 L 305.625 556.949219 L 195.4375 556.949219 Z M 195.4375 465.992188 " fill-opacity="1" fill-rule="nonzero"/></g></g></g><g clip-path="url(#6963500d72)"><g clip-path="url(#7facd6a774)"><g clip-path="url(#23126f5191)"><path fill="#ffffff" d="M 319.703125 256.261719 L 429.886719 256.261719 L 429.886719 347.21875 L 319.703125 347.21875 Z M 319.703125 256.261719 " fill-opacity="1" fill-rule="nonzero"/></g></g></g><g clip-path="url(#0d0f1741af)"><g clip-path="url(#0856308f16)"><g clip-path="url(#9116ddc262)"><path fill="#ffffff" d="M 319.703125 361.113281 L 429.886719 361.113281 L 429.886719 452.066406 L 319.703125 452.066406 Z M 319.703125 361.113281 " fill-opacity="1" fill-rule="nonzero"/></g></g></g><g clip-path="url(#1dd0ddca3f)"><g clip-path="url(#66550fdc45)"><g clip-path="url(#9694807fbb)"><path fill="#ffffff" d="M 319.703125 465.992188 L 429.886719 465.992188 L 429.886719 556.949219 L 319.703125 556.949219 Z M 319.703125 465.992188 " fill-opacity="1" fill-rule="nonzero"/></g></g></g><g clip-path="url(#f20edcc7fb)"><g clip-path="url(#c6ee03c094)"><g clip-path="url(#eb4d3ca268)"><path fill="#ffffff" d="M 443.757812 256.261719 L 553.945312 256.261719 L 553.945312 347.21875 L 443.757812 347.21875 Z M 443.757812 256.261719 " fill-opacity="1" fill-rule="nonzero"/></g></g></g><g clip-path="url(#aaa1dadb3f)"><g clip-path="url(#5d4584c078)"><g clip-path="url(#63e23994fa)"><path fill="#ffffff" d="M 443.757812 361.113281 L 553.945312 361.113281 L 553.945312 452.066406 L 443.757812 452.066406 Z M 443.757812 361.113281 " fill-opacity="1" fill-rule="nonzero"/></g></g></g><g clip-path="url(#5224d2fb1c)"><g clip-path="url(#3c6d4f9c25)"><g clip-path="url(#f5785fc219)"><path fill="#ffffff" d="M 443.757812 465.992188 L 553.945312 465.992188 L 553.945312 556.949219 L 443.757812 556.949219 Z M 443.757812 465.992188 " fill-opacity="1" fill-rule="nonzero"/></g></g></g><g clip-path="url(#5f8020c712)"><g clip-path="url(#56bf99f7f5)"><g clip-path="url(#f52a51caa0)"><path fill="#ffffff" d="M 567.953125 256.246094 L 678.136719 256.246094 L 678.136719 347.203125 L 567.953125 347.203125 Z M 567.953125 256.246094 " fill-opacity="1" fill-rule="nonzero"/></g></g></g><g clip-path="url(#1a8f82e908)"><g clip-path="url(#b414efec46)"><g clip-path="url(#a6fb19ba54)"><path fill="#c1ff72" d="M 567.953125 361.097656 L 678.289062 361.097656 L 678.289062 557.128906 L 567.953125 557.128906 Z M 567.953125 361.097656 " fill-opacity="1" fill-rule="nonzero"/></g></g></g><path fill="#c1ff72" d="M 200.035156 200.152344 L 157.617188 200.152344 L 108.023438 131.820312 L 108.023438 200.152344 L 77.347656 200.152344 L 77.347656 65.597656 L 108.023438 65.597656 L 108.023438 131.820312 L 154.359375 65.597656 L 191.554688 65.597656 L 142.9375 131.820312 Z M 200.035156 200.152344 " fill-opacity="1" fill-rule="nonzero"/><path fill="#c1ff72" d="M 289.289062 65.597656 L 343.78125 200.152344 L 310.828125 200.152344 L 300.710938 173.242188 L 249.476562 173.242188 L 239.683594 200.152344 L 206.726562 200.152344 L 260.898438 65.597656 Z M 290.269531 146.339844 L 274.933594 107.1875 L 259.917969 146.339844 Z M 290.269531 146.339844 " fill-opacity="1" fill-rule="nonzero"/><path fill="#c1ff72" d="M 382.285156 65.597656 L 382.285156 173.242188 L 428.628906 173.242188 L 428.628906 200.152344 L 351.609375 200.152344 L 351.609375 65.597656 Z M 382.285156 65.597656 " fill-opacity="1" fill-rule="nonzero"/><path fill="#c1ff72" d="M 561.429688 200.152344 L 519.011719 200.152344 L 469.417969 131.820312 L 469.417969 200.152344 L 438.742188 200.152344 L 438.742188 65.597656 L 469.417969 65.597656 L 469.417969 131.820312 L 515.75 65.597656 L 552.945312 65.597656 L 504.332031 131.820312 Z M 561.429688 200.152344 " fill-opacity="1" fill-rule="nonzero"/><path fill="#c1ff72" d="M 592.632812 123.007812 L 568.515625 65.527344 L 583.292969 65.527344 L 597.78125 103.292969 L 612.28125 65.527344 L 627.058594 65.527344 L 602.941406 123.007812 Z M 592.632812 123.007812 " fill-opacity="1" fill-rule="nonzero"/><path fill="#c1ff72" d="M 662.046875 94.300781 C 662.046875 90.957031 661.488281 87.996094 660.371094 85.417969 C 659.257812 82.839844 657.351562 80.832031 654.652344 79.386719 C 651.957031 77.949219 648.242188 77.226562 643.507812 77.226562 L 643.507812 111.304688 C 648.242188 111.304688 651.957031 110.585938 654.652344 109.144531 C 657.351562 107.703125 659.257812 105.703125 660.371094 103.148438 C 661.488281 100.59375 662.046875 97.644531 662.046875 94.300781 Z M 630.402344 65.527344 L 647.125 65.527344 C 651.074219 65.527344 654.789062 66.234375 658.269531 67.652344 C 661.757812 69.070312 664.835938 71.054688 667.503906 73.609375 C 670.179688 76.164062 672.273438 79.195312 673.785156 82.707031 C 675.296875 86.210938 676.054688 90.050781 676.054688 94.230469 C 676.054688 98.410156 675.296875 102.253906 673.785156 105.765625 C 672.273438 109.269531 670.179688 112.308594 667.503906 114.886719 C 664.835938 117.464844 661.757812 119.464844 658.269531 120.882812 C 654.789062 122.300781 651.074219 123.007812 647.125 123.007812 L 630.402344 123.007812 Z M 630.402344 65.527344 " fill-opacity="1" fill-rule="nonzero"/></svg>